<svg width="31" height="31" viewBox="0 0 31 31" fill="none" xmlns="http://www.w3.org/2000/svg">
<path fill-rule="evenodd" clip-rule="evenodd" d="M5.99721 1.76099e-07H8.21113C8.98767 -6.28223e-06 9.614 -1.29462e-05 10.1238 0.0347716C10.648 0.0705379 11.1116 0.145939 11.5505 0.327741C12.6054 0.764732 13.4436 1.60289 13.8806 2.65786C14.0624 3.09677 14.1378 3.56035 14.1736 4.08451C14.2083 4.59433 14.2083 5.22066 14.2083 5.99721V8.21113C14.2083 8.98767 14.2083 9.61407 14.1736 10.1238C14.1378 10.648 14.0624 11.1116 13.8806 11.5505C13.4436 12.6054 12.6054 13.4436 11.5505 13.8806C11.1116 14.0624 10.648 14.1378 10.1238 14.1736C9.614 14.2083 8.98767 14.2083 8.21113 14.2083H5.99721C5.22066 14.2083 4.59433 14.2083 4.08451 14.1736C3.56035 14.1378 3.09677 14.0624 2.65786 13.8806C1.60289 13.4436 0.764732 12.6054 0.327741 11.5505C0.145939 11.1116 0.0705379 10.648 0.0347716 10.1238C-1.29462e-05 9.614 -6.28223e-06 8.98767 1.76099e-07 8.21113V5.99721C-6.28223e-06 5.22066 -1.29462e-05 4.59433 0.0347716 4.08451C0.0705379 3.56035 0.145939 3.09677 0.327741 2.65786C0.764732 1.60289 1.60289 0.764732 2.65786 0.327741C3.09677 0.145939 3.56035 0.0705379 4.08451 0.0347716C4.59433 -1.29462e-05 5.22066 -6.28223e-06 5.99721 1.76099e-07ZM4.20173 1.75299C3.76521 1.78276 3.51101 1.83849 3.31694 1.91884C2.68395 2.18104 2.18104 2.68395 1.91884 3.31694C1.83849 3.51101 1.78276 3.76521 1.75299 4.20173C1.7227 4.646 1.72224 5.21355 1.72224 6.02776V8.18058C1.72224 8.99478 1.7227 9.56234 1.75299 10.0066C1.78276 10.4431 1.83849 10.6973 1.91884 10.8914C2.18104 11.5244 2.68395 12.0273 3.31694 12.2895C3.51101 12.3698 3.76521 12.4256 4.20173 12.4553C4.646 12.4856 5.21355 12.4861 6.02776 12.4861H8.18058C8.99478 12.4861 9.56234 12.4856 10.0066 12.4553C10.4431 12.4256 10.6973 12.3698 10.8914 12.2895C11.5244 12.0273 12.0273 11.5244 12.2895 10.8914C12.3698 10.6973 12.4256 10.4431 12.4553 10.0066C12.4856 9.56234 12.4861 8.99478 12.4861 8.18058V6.02776C12.4861 5.21355 12.4856 4.646 12.4553 4.20173C12.4256 3.76521 12.3698 3.51101 12.2895 3.31694C12.0273 2.68395 11.5244 2.18104 10.8914 1.91884C10.6973 1.83849 10.4431 1.78276 10.0066 1.75299C9.56234 1.7227 8.99478 1.72224 8.18058 1.72224H6.02776C5.21355 1.72224 4.646 1.7227 4.20173 1.75299ZM5.99721 16.7917H8.21113C8.98767 16.7917 9.614 16.7917 10.1238 16.8264C10.648 16.8622 11.1116 16.9376 11.5505 17.1194C12.6054 17.5564 13.4436 18.3946 13.8806 19.4495C14.0624 19.8884 14.1378 20.352 14.1736 20.8762C14.2083 21.386 14.2083 22.0123 14.2083 22.7889V25.0028C14.2083 25.7793 14.2083 26.4057 14.1736 26.9155C14.1378 27.4396 14.0624 27.9032 13.8806 28.3421C13.4436 29.3971 12.6054 30.2353 11.5505 30.6722C11.1116 30.854 10.648 30.9295 10.1238 30.9653C9.614 31 8.98767 31 8.21113 31H5.99721C5.22066 31 4.59433 31 4.08451 30.9653C3.56035 30.9295 3.09677 30.854 2.65786 30.6722C1.60289 30.2353 0.764732 29.3971 0.327741 28.3421C0.145939 27.9032 0.0705379 27.4396 0.0347716 26.9155C-1.29462e-05 26.4057 -6.28223e-06 25.7793 1.76099e-07 25.0028V22.7889C-6.28223e-06 22.0123 -1.29462e-05 21.386 0.0347716 20.8762C0.0705379 20.352 0.145939 19.8884 0.327741 19.4495C0.764732 18.3946 1.60289 17.5564 2.65786 17.1194C3.09677 16.9376 3.56035 16.8622 4.08451 16.8264C4.59433 16.7917 5.22066 16.7917 5.99721 16.7917ZM4.20173 18.5447C3.76521 18.5744 3.51101 18.6302 3.31694 18.7105C2.68395 18.9727 2.18104 19.4756 1.91884 20.1086C1.83849 20.3027 1.78276 20.5569 1.75299 20.9934C1.7227 21.4377 1.72224 22.0052 1.72224 22.8194V24.9722C1.72224 25.7864 1.7227 26.354 1.75299 26.7983C1.78276 27.2348 1.83849 27.489 1.91884 27.6831C2.18104 28.316 2.68395 28.819 3.31694 29.0812C3.51101 29.1615 3.76521 29.2172 4.20173 29.247C4.646 29.2773 5.21355 29.2778 6.02776 29.2778H8.18058C8.99478 29.2778 9.56234 29.2773 10.0066 29.247C10.4431 29.2172 10.6973 29.1615 10.8914 29.0812C11.5244 28.819 12.0273 28.316 12.2895 27.6831C12.3698 27.489 12.4256 27.2348 12.4553 26.7983C12.4856 26.354 12.4861 25.7864 12.4861 24.9722V22.8194C12.4861 22.0052 12.4856 21.4377 12.4553 20.9934C12.4256 20.5569 12.3698 20.3027 12.2895 20.1086C12.0273 19.4756 11.5244 18.9727 10.8914 18.7105C10.6973 18.6302 10.4431 18.5744 10.0066 18.5447C9.56234 18.5144 8.99478 18.5139 8.18058 18.5139H6.02776C5.21355 18.5139 4.646 18.5144 4.20173 18.5447ZM22.7889 1.76099e-07H25.0028C25.7793 -6.28223e-06 26.4057 -1.29462e-05 26.9155 0.0347716C27.4396 0.0705379 27.9032 0.145939 28.3421 0.327741C29.3971 0.764732 30.2353 1.60289 30.6722 2.65786C30.854 3.09677 30.9295 3.56035 30.9653 4.08451C31 4.59433 31 5.22066 31 5.99721V8.21113C31 8.98767 31 9.61407 30.9653 10.1238C30.9295 10.648 30.854 11.1116 30.6722 11.5505C30.2353 12.6054 29.3971 13.4436 28.3421 13.8806C27.9032 14.0624 27.4396 14.1378 26.9155 14.1736C26.4057 14.2083 25.7793 14.2083 25.0028 14.2083H22.7889C22.0123 14.2083 21.386 14.2083 20.8762 14.1736C20.352 14.1378 19.8884 14.0624 19.4495 13.8806C18.3946 13.4436 17.5564 12.6054 17.1194 11.5505C16.9376 11.1116 16.8622 10.648 16.8264 10.1238C16.7917 9.614 16.7917 8.98767 16.7917 8.21113V5.99721C16.7917 5.22066 16.7917 4.59433 16.8264 4.08451C16.8622 3.56035 16.9376 3.09677 17.1194 2.65786C17.5564 1.60289 18.3946 0.764732 19.4495 0.327741C19.8884 0.145939 20.352 0.0705379 20.8762 0.0347716C21.386 -1.29462e-05 22.0123 -6.28223e-06 22.7889 1.76099e-07ZM20.9934 1.75299C20.5569 1.78276 20.3027 1.83849 20.1086 1.91884C19.4756 2.18104 18.9727 2.68395 18.7105 3.31694C18.6302 3.51101 18.5744 3.76521 18.5447 4.20173C18.5144 4.646 18.5139 5.21355 18.5139 6.02776V8.18058C18.5139 8.99478 18.5144 9.56234 18.5447 10.0066C18.5744 10.4431 18.6302 10.6973 18.7105 10.8914C18.9727 11.5244 19.4756 12.0273 20.1086 12.2895C20.3027 12.3698 20.5569 12.4256 20.9934 12.4553C21.4377 12.4856 22.0052 12.4861 22.8194 12.4861H24.9722C25.7864 12.4861 26.354 12.4856 26.7983 12.4553C27.2348 12.4256 27.489 12.3698 27.6831 12.2895C28.316 12.0273 28.819 11.5244 29.0812 10.8914C29.1615 10.6973 29.2172 10.4431 29.247 10.0066C29.2773 9.56234 29.2778 8.99478 29.2778 8.18058V6.02776C29.2778 5.21355 29.2773 4.646 29.247 4.20173C29.2172 3.76521 29.1615 3.51101 29.0812 3.31694C28.819 2.68395 28.316 2.18104 27.6831 1.91884C27.489 1.83849 27.2348 1.78276 26.7983 1.75299C26.354 1.7227 25.7864 1.72224 24.9722 1.72224H22.8194C22.0052 1.72224 21.4377 1.7227 20.9934 1.75299ZM22.7889 16.7917H25.0028C25.7793 16.7917 26.4057 16.7917 26.9155 16.8264C27.4396 16.8622 27.9032 16.9376 28.3421 17.1194C29.3971 17.5564 30.2353 18.3946 30.6722 19.4495C30.854 19.8884 30.9295 20.352 30.9653 20.8762C31 21.386 31 22.0123 31 22.7889V25.0028C31 25.7793 31 26.4057 30.9653 26.9155C30.9295 27.4396 30.854 27.9032 30.6722 28.3421C30.2353 29.3971 29.3971 30.2353 28.3421 30.6722C27.9032 30.854 27.4396 30.9295 26.9155 30.9653C26.4057 31 25.7793 31 25.0028 31H22.7889C22.0123 31 21.386 31 20.8762 30.9653C20.352 30.9295 19.8884 30.854 19.4495 30.6722C18.3946 30.2353 17.5564 29.3971 17.1194 28.3421C16.9376 27.9032 16.8622 27.4396 16.8264 26.9155C16.7917 26.4057 16.7917 25.7793 16.7917 25.0028V22.7889C16.7917 22.0123 16.7917 21.386 16.8264 20.8762C16.8622 20.352 16.9376 19.8884 17.1194 19.4495C17.5564 18.3946 18.3946 17.5564 19.4495 17.1194C19.8884 16.9376 20.352 16.8622 20.8762 16.8264C21.386 16.7917 22.0123 16.7917 22.7889 16.7917ZM20.9934 18.5447C20.5569 18.5744 20.3027 18.6302 20.1086 18.7105C19.4756 18.9727 18.9727 19.4756 18.7105 20.1086C18.6302 20.3027 18.5744 20.5569 18.5447 20.9934C18.5144 21.4377 18.5139 22.0052 18.5139 22.8194V24.9722C18.5139 25.7864 18.5144 26.354 18.5447 26.7983C18.5744 27.2348 18.6302 27.489 18.7105 27.6831C18.9727 28.316 19.4756 28.819 20.1086 29.0812C20.3027 29.1615 20.5569 29.2172 20.9934 29.247C21.4377 29.2773 22.0052 29.2778 22.8194 29.2778H24.9722C25.7864 29.2778 26.354 29.2773 26.7983 29.247C27.2348 29.2172 27.489 29.1615 27.6831 29.0812C28.316 28.819 28.819 28.316 29.0812 27.6831C29.1615 27.489 29.2172 27.2348 29.247 26.7983C29.2773 26.354 29.2778 25.7864 29.2778 24.9722V22.8194C29.2778 22.0052 29.2773 21.4377 29.247 20.9934C29.2172 20.5569 29.1615 20.3027 29.0812 20.1086C28.819 19.4756 28.316 18.9727 27.6831 18.7105C27.489 18.6302 27.2348 18.5744 26.7983 18.5447C26.354 18.5144 25.7864 18.5139 24.9722 18.5139H22.8194C22.0052 18.5139 21.4377 18.5144 20.9934 18.5447Z" fill="#018C70"/>
</svg>
