<svg width="20" height="12" viewBox="0 0 20 12" fill="none" xmlns="http://www.w3.org/2000/svg">
<path d="M17.7336 1.04293L10.0001 8.7764L2.26669 1.04293C2.01443 0.799297 1.67657 0.664484 1.32588 0.667531C0.975194 0.670578 0.639731 0.811242 0.391746 1.05923C0.143762 1.30721 0.00309796 1.64267 5.05613e-05 1.99336C-0.00299684 2.34405 0.131816 2.68191 0.375454 2.93417L9.05052 11.6092C9.17492 11.7342 9.32297 11.833 9.48602 11.9001C9.64907 11.9672 9.82385 12.001 10.0001 11.9998C10.1764 12.0007 10.3511 11.9666 10.5141 11.8996C10.6771 11.8325 10.8252 11.7339 10.9498 11.6092L19.6248 2.93417C19.8685 2.68191 20.0033 2.34405 20.0002 1.99336C19.9972 1.64267 19.8565 1.30721 19.6086 1.05923C19.3606 0.811242 19.0251 0.670578 18.6744 0.667531C18.3237 0.664484 17.9859 0.799297 17.7336 1.04293Z" fill="black"/>
</svg>
