<svg width="59" height="59" viewBox="0 0 59 59" fill="none" xmlns="http://www.w3.org/2000/svg">
<rect width="59" height="59" rx="29.5" fill="#018C70"/>
<path d="M41.089 26.4138L24.9899 18.3615C24.3545 18.0452 23.6371 17.9326 22.9355 18.039C22.2338 18.1455 21.582 18.4658 21.069 18.9564C20.556 19.4469 20.2067 20.0838 20.0687 20.7802C19.9308 21.4766 20.0109 22.1986 20.2981 22.8478L23.058 29.0251C23.1206 29.1744 23.1529 29.3348 23.1529 29.4967C23.1529 29.6587 23.1206 29.819 23.058 29.9683L20.2981 36.1456C20.0644 36.671 19.9655 37.2465 20.0106 37.8198C20.0557 38.3931 20.2433 38.946 20.5564 39.4283C20.8695 39.9106 21.298 40.307 21.8032 40.5815C22.3084 40.856 22.8741 40.9999 23.449 41C23.9874 40.9946 24.5178 40.8689 25.0014 40.6319L41.1005 32.5796C41.6716 32.2922 42.1516 31.8518 42.487 31.3074C42.8224 30.763 43 30.1362 43 29.4967C43 28.8572 42.8224 28.2304 42.487 27.686C42.1516 27.1416 41.6716 26.7012 41.1005 26.4138H41.089ZM40.0656 30.5205L23.9664 38.5728C23.755 38.6743 23.5177 38.7088 23.2861 38.6716C23.0546 38.6343 22.84 38.5271 22.6711 38.3644C22.5021 38.2017 22.387 37.9912 22.341 37.7612C22.2951 37.5311 22.3206 37.2925 22.414 37.0774L25.1624 30.9001C25.198 30.8176 25.2287 30.7331 25.2544 30.647H33.1774C33.4824 30.647 33.7749 30.5258 33.9906 30.3101C34.2062 30.0944 34.3274 29.8018 34.3274 29.4967C34.3274 29.1916 34.2062 28.899 33.9906 28.6833C33.7749 28.4676 33.4824 28.3464 33.1774 28.3464H25.2544C25.2287 28.2603 25.198 28.1758 25.1624 28.0933L22.414 21.916C22.3206 21.7009 22.2951 21.4623 22.341 21.2322C22.387 21.0022 22.5021 20.7917 22.6711 20.629C22.84 20.4663 23.0546 20.3591 23.2861 20.3218C23.5177 20.2846 23.755 20.3191 23.9664 20.4206L40.0656 28.4729C40.2539 28.5694 40.412 28.7161 40.5224 28.8967C40.6328 29.0774 40.6912 29.285 40.6912 29.4967C40.6912 29.7084 40.6328 29.916 40.5224 30.0967C40.412 30.2773 40.2539 30.424 40.0656 30.5205Z" fill="white"/>
</svg>
