<svg width="36" height="35" viewBox="0 0 36 35" fill="none" xmlns="http://www.w3.org/2000/svg">
<path d="M25.04 0H2.55086C1.1444 0 0 1.14048 0 2.54267V32.4423C0 33.8488 1.1444 34.9932 2.55086 34.9932H25.04C26.4465 34.9932 27.5909 33.8488 27.5909 32.4423V22.7062L34.2358 16.0611C35.257 15.0403 35.257 13.3792 34.2358 12.3584L32.4462 10.5684C31.425 9.54722 29.7643 9.54722 28.7431 10.5684L27.5909 11.7207V2.54267C27.5909 1.14048 26.4465 0 25.04 0ZM21.4799 26.7547L18.0497 23.3245L27.3011 14.0729L30.7314 17.5032L21.4799 26.7547ZM17.4459 24.783L20.0212 27.3583L16.7252 28.0791L17.4459 24.783ZM26.1324 32.4423C26.1324 33.0448 25.6425 33.5347 25.04 33.5347H2.55086C1.9484 33.5347 1.45845 33.0448 1.45845 32.4423V2.54267C1.45845 1.94484 1.9484 1.45845 2.55086 1.45845H25.04C25.6425 1.45845 26.1324 1.94484 26.1324 2.54267V13.1792L20.2377 19.0741H5.62799C5.22492 19.0741 4.89877 19.4007 4.89877 19.8034C4.89877 20.2061 5.22492 20.5326 5.62799 20.5326H18.7793L16.503 22.8089C16.441 22.8707 16.3962 22.9449 16.3604 23.0236C16.3497 23.047 16.3422 23.07 16.3342 23.0942C16.3257 23.1195 16.312 23.1427 16.3064 23.1689L16.1925 23.6898H5.62799C5.22492 23.6898 4.89877 24.0163 4.89877 24.4191C4.89877 24.8218 5.22492 25.1483 5.62799 25.1483H15.8737L15.1835 28.3052H5.62799C5.22492 28.3052 4.89877 28.6317 4.89877 29.0344C4.89877 29.4371 5.22492 29.7636 5.62799 29.7636H15.7702C15.8222 29.7636 15.8742 29.7583 15.9261 29.7469L21.636 28.4985C21.6626 28.4927 21.6861 28.4788 21.7117 28.4702C21.7355 28.4621 21.758 28.4547 21.781 28.4442C21.8597 28.4082 21.9341 28.3634 21.9957 28.3016L26.1324 24.1647V32.4423ZM29.7743 11.5996C30.2272 11.1474 30.9621 11.1474 31.415 11.5996L33.2046 13.3895C33.6568 13.8417 33.6568 14.5777 33.2046 15.0299L31.7626 16.472L28.3322 13.0417L29.7743 11.5996Z" fill="black"/>
<path d="M5.62815 6.6855H21.9659C22.369 6.6855 22.6951 6.35899 22.6951 5.95628C22.6951 5.55356 22.369 5.22705 21.9659 5.22705H5.62815C5.22508 5.22705 4.89893 5.55356 4.89893 5.95628C4.89893 6.35899 5.22508 6.6855 5.62815 6.6855ZM5.62815 11.3012H21.9659C22.369 11.3012 22.6951 10.9747 22.6951 10.572C22.6951 10.1693 22.369 9.84274 21.9659 9.84274H5.62815C5.22508 9.84274 4.89893 10.1693 4.89893 10.572C4.89893 10.9747 5.22508 11.3012 5.62815 11.3012ZM5.62815 15.9165H21.9659C22.369 15.9165 22.6951 15.59 22.6951 15.1873C22.6951 14.7846 22.369 14.4581 21.9659 14.4581H5.62815C5.22508 14.4581 4.89893 14.7846 4.89893 15.1873C4.89893 15.59 5.22508 15.9165 5.62815 15.9165Z" fill="black"/>
</svg>
