<svg width="28" height="25" viewBox="0 0 28 25" fill="none" xmlns="http://www.w3.org/2000/svg">
<path d="M14.4265 11.9278C14.1748 11.6811 13.8365 11.543 13.4841 11.543C13.1317 11.543 12.7934 11.6811 12.5418 11.9278L8.50308 15.8319C8.36024 15.9497 8.24325 16.0958 8.15943 16.261C8.07561 16.4261 8.02677 16.6068 8.01597 16.7917C8.00516 16.9765 8.03262 17.1617 8.09662 17.3355C8.16062 17.5092 8.2598 17.668 8.38794 17.8017C8.51608 17.9354 8.67043 18.0412 8.84134 18.1126C9.01225 18.1839 9.19604 18.2192 9.38122 18.2163C9.5664 18.2133 9.74898 18.1722 9.91755 18.0955C10.0861 18.0188 10.237 17.9081 10.3609 17.7704L12.1244 16.0607V23.6534C12.1244 24.0105 12.2663 24.3529 12.5187 24.6054C12.7712 24.8578 13.1136 24.9997 13.4707 24.9997C13.8277 24.9997 14.1701 24.8578 14.4226 24.6054C14.675 24.3529 14.8169 24.0105 14.8169 23.6534V16.128L16.5535 17.8781C16.6787 18.0043 16.8276 18.1044 16.9916 18.1728C17.1557 18.2411 17.3316 18.2763 17.5093 18.2763C17.6871 18.2763 17.863 18.2411 18.0271 18.1728C18.1911 18.1044 18.34 18.0043 18.4652 17.8781C18.5913 17.753 18.6915 17.6041 18.7598 17.44C18.8282 17.276 18.8634 17.1 18.8634 16.9223C18.8634 16.7446 18.8282 16.5686 18.7598 16.4046C18.6915 16.2405 18.5913 16.0916 18.4652 15.9665L14.4265 11.9278Z" fill="#018C70"/>
<path d="M21.1038 6.15278C20.5544 4.56565 19.5241 3.18922 18.156 2.21502C16.7879 1.24081 15.1502 0.717285 13.4707 0.717285C11.7912 0.717285 10.1534 1.24081 8.78535 2.21502C7.41726 3.18922 6.38688 4.56565 5.83756 6.15278C4.62805 6.31478 3.48533 6.80254 2.53164 7.56388C1.57795 8.32522 0.849169 9.33151 0.423265 10.4751C-0.00263866 11.6187 -0.109646 12.8565 0.113689 14.0562C0.337024 15.2559 0.8823 16.3724 1.69119 17.2861C1.78889 17.4582 1.92335 17.6066 2.08497 17.7208C2.24659 17.835 2.43141 17.9122 2.62626 17.9469C2.82111 17.9815 3.0212 17.9728 3.21229 17.9213C3.40338 17.8697 3.58075 17.7767 3.7318 17.6489C3.88284 17.521 4.00382 17.3614 4.08614 17.1814C4.16846 17.0014 4.21009 16.8055 4.20806 16.6076C4.20603 16.4097 4.16039 16.2147 4.07439 16.0365C3.9884 15.8582 3.86416 15.7011 3.71053 15.5764C3.18969 14.9941 2.84892 14.2732 2.72951 13.5011C2.61011 12.7291 2.71719 11.939 3.03778 11.2265C3.35838 10.5141 3.87872 9.90995 4.53575 9.48728C5.19278 9.06462 5.9583 8.84159 6.73953 8.84523H6.87416C7.1891 8.85158 7.4963 8.74729 7.74228 8.5505C7.98826 8.35372 8.15744 8.07691 8.22038 7.76825C8.46757 6.55095 9.12799 5.45654 10.0897 4.67044C11.0515 3.88435 12.2554 3.45493 13.4976 3.45493C14.7397 3.45493 15.9437 3.88435 16.9054 4.67044C17.8672 5.45654 18.5276 6.55095 18.7748 7.76825C18.8377 8.07691 19.0069 8.35372 19.2529 8.5505C19.4989 8.74729 19.8061 8.85158 20.121 8.84523H20.2018C20.983 8.84159 21.7485 9.06462 22.4056 9.48728C23.0626 9.90995 23.583 10.5141 23.9035 11.2265C24.2241 11.939 24.3312 12.7291 24.2118 13.5011C24.0924 14.2732 23.7516 14.9941 23.2308 15.5764C23.1122 15.7093 23.0212 15.8645 22.9631 16.033C22.9049 16.2014 22.8808 16.3797 22.892 16.5575C22.9033 16.7353 22.9498 16.9091 23.0287 17.0689C23.1077 17.2286 23.2175 17.3711 23.352 17.488C23.5974 17.7044 23.9132 17.8241 24.2405 17.8246C24.4316 17.8243 24.6205 17.7834 24.7946 17.7044C24.9687 17.6255 25.124 17.5104 25.2501 17.3668C26.0815 16.4547 26.646 15.3316 26.8821 14.1202C27.1181 12.9088 27.0166 11.6559 26.5886 10.4984C26.1606 9.34081 25.4226 8.32321 24.4553 7.5568C23.4879 6.7904 22.3285 6.30469 21.1038 6.15278Z" fill="#018C70"/>
</svg>
