<svg width="37" height="37" viewBox="0 0 37 37" fill="none" xmlns="http://www.w3.org/2000/svg">
<path d="M18.5 37C28.7173 37 37 28.7173 37 18.5C37 8.28273 28.7173 0 18.5 0C8.28273 0 0 8.28273 0 18.5C0 28.7173 8.28273 37 18.5 37Z" fill="url(#paint0_linear_239_245)"/>
<path d="M22.219 20.1343L20.1343 22.219L14.5748 16.6596L16.6596 14.5748L13.1848 11.1001L11.1001 13.1848C11.1 14.8276 11.4235 16.4543 12.052 17.972C12.6806 19.4898 13.602 20.8688 14.7636 22.0305C15.9251 23.1921 17.3042 24.1136 18.8219 24.7423C20.3396 25.371 21.9662 25.6945 23.609 25.6945L25.6945 23.609L22.219 20.1343Z" fill="url(#paint1_linear_239_245)" stroke="white" stroke-width="1.4" stroke-miterlimit="10" stroke-linecap="square"/>
<defs>
<linearGradient id="paint0_linear_239_245" x1="0" y1="18.5" x2="37" y2="18.5" gradientUnits="userSpaceOnUse">
<stop stop-color="#0C6A9E"/>
<stop offset="1" stop-color="#018C70"/>
</linearGradient>
<linearGradient id="paint1_linear_239_245" x1="11.1001" y1="18.3973" x2="25.6945" y2="18.3973" gradientUnits="userSpaceOnUse">
<stop stop-color="#0C6A9E"/>
<stop offset="1" stop-color="#018C70"/>
</linearGradient>
</defs>
</svg>
