<svg width="24" height="24" viewBox="0 0 24 24" fill="none" xmlns="http://www.w3.org/2000/svg">
<path d="M12 0C18.6274 0 24 5.37258 24 12C24 18.6274 18.6274 24 12 24C5.37258 24 0 18.6274 0 12C0 5.37258 5.37258 0 12 0ZM12 2C6.47715 2 2 6.47715 2 12C2 17.5228 6.47715 22 12 22C17.5228 22 22 17.5228 22 12C22 6.47715 17.5228 2 12 2ZM12 17C12.8284 17 13.5 17.6716 13.5 18.5C13.5 19.3284 12.8284 20 12 20C11.1716 20 10.5 19.3284 10.5 18.5C10.5 17.6716 11.1716 17 12 17ZM12 5C14.2091 5 16 6.79086 16 9C16 10.4611 15.5764 11.2794 14.4921 12.4158L13.9639 12.9549C13.209 13.742 13 14.1662 13 15C13 15.5523 12.5523 16 12 16C11.4477 16 11 15.5523 11 15C11 13.5389 11.4236 12.7206 12.5079 11.5842L13.0361 11.0451C13.791 10.258 14 9.8338 14 9C14 7.89543 13.1046 7 12 7C10.8954 7 10 7.89543 10 9C10 9.55228 9.55228 10 9 10C8.44772 10 8 9.55228 8 9C8 6.79086 9.79086 5 12 5Z" fill="#A0A0A0"/>
</svg>
