<svg width="22" height="22" viewBox="0 0 22 22" fill="none" xmlns="http://www.w3.org/2000/svg">
<path d="M21.8778 10.5108C21.7556 10.3886 21.7556 10.2664 21.6333 10.1442L17.9667 6.47751C17.4778 5.98862 16.7444 5.98862 16.2556 6.47751C15.7667 6.9664 15.7667 7.69973 16.2556 8.18862L17.8444 9.77751H12.2222C11.4889 9.77751 11 10.2664 11 10.9997C11 11.7331 11.4889 12.222 12.2222 12.222H17.8444L16.2556 13.8108C15.7667 14.2997 15.7667 15.0331 16.2556 15.522C16.5 15.7664 16.8667 15.8886 17.1111 15.8886C17.3556 15.8886 17.7222 15.7664 17.9667 15.522L21.6333 11.8553C21.7556 11.7331 21.8778 11.6108 21.8778 11.4886C22 11.122 22 10.8775 21.8778 10.5108Z" fill="#0C6A9E"/>
<path d="M15.2778 18.4556C13.9333 19.1889 12.4667 19.5556 11 19.5556C6.23333 19.5556 2.44444 15.7667 2.44444 11C2.44444 6.23333 6.23333 2.44444 11 2.44444C12.4667 2.44444 13.9333 2.81111 15.2778 3.54444C15.8889 3.91111 16.6222 3.66667 16.9889 3.05556C17.3556 2.44444 17.1111 1.71111 16.5 1.34444C14.7889 0.488889 12.9556 0 11 0C4.88889 0 0 4.88889 0 11C0 17.1111 4.88889 22 11 22C12.9556 22 14.7889 21.5111 16.5 20.5333C17.1111 20.1667 17.2333 19.4333 16.9889 18.8222C16.6222 18.3333 15.8889 18.0889 15.2778 18.4556Z" fill="#0C6A9E"/>
</svg>
