<svg width="30" height="28" viewBox="0 0 30 28" fill="none" xmlns="http://www.w3.org/2000/svg">
<path d="M17.833 6.50016V3.66683H12.1663V6.50016H17.833ZM3.66634 10.7502V23.5002C3.66634 24.2793 4.30384 24.9168 5.08301 24.9168H24.9163C25.6955 24.9168 26.333 24.2793 26.333 23.5002V10.7502C26.333 9.971 25.6955 9.3335 24.9163 9.3335H5.08301C4.30384 9.3335 3.66634 9.971 3.66634 10.7502ZM26.333 6.50016C27.9055 6.50016 29.1663 7.761 29.1663 9.3335V24.9168C29.1663 26.4893 27.9055 27.7502 26.333 27.7502H3.66634C2.09384 27.7502 0.833008 26.4893 0.833008 24.9168L0.847174 9.3335C0.847174 7.761 2.09384 6.50016 3.66634 6.50016H9.33301V3.66683C9.33301 2.09433 10.5938 0.833496 12.1663 0.833496H17.833C19.4055 0.833496 20.6663 2.09433 20.6663 3.66683V6.50016H26.333Z" fill="#656565"/>
</svg>
