<svg width="22" height="22" viewBox="0 0 22 22" fill="none" xmlns="http://www.w3.org/2000/svg">
<path d="M21.5402 19.8131L17.4049 15.6899C18.7391 13.9901 19.4631 11.8911 19.4604 9.7302C19.4604 7.80575 18.8897 5.92452 17.8206 4.32439C16.7514 2.72427 15.2317 1.47713 13.4538 0.740671C11.6758 0.00421591 9.71941 -0.188474 7.83193 0.186967C5.94446 0.562409 4.21071 1.48912 2.84991 2.84991C1.48912 4.21071 0.562409 5.94446 0.186967 7.83193C-0.188474 9.71941 0.00421591 11.6758 0.740671 13.4538C1.47713 15.2317 2.72427 16.7514 4.32439 17.8206C5.92452 18.8897 7.80575 19.4604 9.7302 19.4604C11.8911 19.4631 13.9901 18.7391 15.6899 17.4049L19.8131 21.5402C19.9262 21.6542 20.0607 21.7447 20.2089 21.8065C20.3571 21.8682 20.5161 21.9 20.6767 21.9C20.8372 21.9 20.9962 21.8682 21.1444 21.8065C21.2926 21.7447 21.4272 21.6542 21.5402 21.5402C21.6542 21.4272 21.7447 21.2926 21.8065 21.1444C21.8682 20.9962 21.9 20.8372 21.9 20.6767C21.9 20.5161 21.8682 20.3571 21.8065 20.2089C21.7447 20.0607 21.6542 19.9262 21.5402 19.8131ZM2.43255 9.7302C2.43255 8.28686 2.86055 6.87594 3.66243 5.67585C4.4643 4.47575 5.60404 3.5404 6.93751 2.98805C8.27098 2.43571 9.7383 2.29119 11.1539 2.57278C12.5695 2.85436 13.8698 3.54939 14.8904 4.56999C15.911 5.59058 16.606 6.8909 16.8876 8.3065C17.1692 9.72211 17.0247 11.1894 16.4723 12.5229C15.92 13.8564 14.9846 14.9961 13.7846 15.798C12.5845 16.5998 11.1735 17.0278 9.7302 17.0278C7.79474 17.0278 5.93856 16.259 4.56999 14.8904C3.20141 13.5218 2.43255 11.6657 2.43255 9.7302Z" fill="#838383"/>
</svg>
