<svg width="24" height="25" viewBox="0 0 24 25" fill="none" xmlns="http://www.w3.org/2000/svg">
<path d="M1.20009 8.06701H19.0059L15.4278 11.6452C14.6573 12.3619 15.2481 13.7466 16.2826 13.7089C16.5919 13.709 16.9012 13.5909 17.1374 13.3548L22.7793 7.7128C23.1103 7.35895 23.2107 6.85007 23.0414 6.39518C22.9671 6.25768 22.8782 6.12427 22.7793 6.00322C22.7793 6.00322 17.1373 0.361266 17.1373 0.361266C15.9968 -0.741371 14.3217 0.926128 15.4278 2.07089C15.4278 2.07085 19.0059 5.64903 19.0059 5.64903H1.20009C-0.37755 5.67269 -0.398252 8.03903 1.20009 8.06701ZM21.9245 16.9329H4.11866L7.69683 13.3548C8.80054 12.2169 7.13118 10.5381 5.9872 11.6452C5.98723 11.6452 0.34528 17.2871 0.34528 17.2871C0.0086674 17.6484 -0.107833 18.2042 0.112756 18.6539C0.174667 18.7772 0.261264 18.8891 0.34528 18.9967L5.98724 24.6387C7.12781 25.7415 8.80283 24.0736 7.69679 22.9291C7.69683 22.9291 4.11865 19.3509 4.11865 19.3509H21.9245C23.502 19.3275 23.5229 16.9608 21.9245 16.9329Z" fill="#656565"/>
</svg>
