<svg width="20" height="12" viewBox="0 0 20 12" fill="none" xmlns="http://www.w3.org/2000/svg">
<path d="M2.26639 11.6245L9.99985 3.89108L17.7333 11.6245C17.9856 11.8682 18.3234 12.003 18.6741 11.9999C19.0248 11.9969 19.3603 11.8562 19.6083 11.6083C19.8562 11.3603 19.9969 11.0248 19.9999 10.6741C20.003 10.3234 19.8682 9.98557 19.6245 9.73331L10.9495 1.05824C10.8251 0.933319 10.677 0.834439 10.514 0.767382C10.3509 0.700324 10.1761 0.666435 9.99985 0.667693C9.82361 0.666806 9.64894 0.700866 9.48594 0.767902C9.32294 0.834938 9.17485 0.93362 9.05022 1.05824L0.375157 9.73331C0.131519 9.98557 -0.00329384 10.3234 -0.000247839 10.6741C0.00280007 11.0248 0.143463 11.3603 0.391447 11.6083C0.639433 11.8562 0.974895 11.9969 1.32559 11.9999C1.67628 12.003 2.01413 11.8682 2.26639 11.6245Z" fill="black"/>
</svg>
