<svg width="20" height="19" viewBox="0 0 20 19" fill="none" xmlns="http://www.w3.org/2000/svg">
<path d="M10.4779 0.496865L12.7774 5.15567C12.8414 5.28531 12.936 5.39744 13.0529 5.48241C13.1699 5.56737 13.3058 5.62262 13.4488 5.6434L18.59 6.39059C18.7547 6.41451 18.9094 6.48403 19.0366 6.5913C19.1639 6.69857 19.2585 6.83931 19.3099 6.99758C19.3613 7.15586 19.3674 7.32536 19.3275 7.48691C19.2875 7.64846 19.2032 7.79562 19.084 7.91172L15.3632 11.538C15.1528 11.7431 15.0573 12.0382 15.1064 12.3271L15.9846 17.4478C16.0127 17.6118 15.9944 17.7803 15.9317 17.9344C15.869 18.0885 15.7644 18.222 15.6298 18.3198C15.4952 18.4175 15.336 18.4757 15.17 18.4877C15.0041 18.4997 14.8381 18.465 14.6909 18.3876L10.0918 15.9695C9.96378 15.9023 9.82135 15.8672 9.67676 15.8672C9.53217 15.8672 9.38974 15.9023 9.2617 15.9695L4.66263 18.3876C4.51538 18.465 4.34941 18.4997 4.18348 18.4877C4.01754 18.4757 3.85827 18.4175 3.72367 18.3198C3.58907 18.222 3.48451 18.0885 3.42181 17.9344C3.35911 17.7803 3.34077 17.6118 3.36887 17.4478L4.24713 12.3271C4.27158 12.1846 4.26098 12.0383 4.21624 11.9008C4.1715 11.7634 4.09397 11.6388 3.99034 11.538L0.269533 7.91172C0.150318 7.79562 0.0659757 7.64846 0.0260467 7.48691C-0.0138823 7.32536 -0.00780391 7.15586 0.0435942 6.99758C0.0949923 6.83931 0.189659 6.69857 0.316884 6.5913C0.444109 6.48403 0.598815 6.41451 0.7635 6.39059L5.90468 5.6434C6.04775 5.62262 6.18362 5.56737 6.30058 5.48241C6.41755 5.39744 6.5121 5.28531 6.57609 5.15567L8.87562 0.496865C9.20553 -0.165622 10.1507 -0.165622 10.4779 0.496865Z" fill="#EBC810"/>
</svg>
