<svg width="22" height="22" viewBox="0 0 22 22" fill="none" xmlns="http://www.w3.org/2000/svg">
<path d="M12.9391 11.0031L21.5808 2.36106C21.7119 2.23438 21.8165 2.08284 21.8885 1.9153C21.9605 1.74775 21.9984 1.56755 21.9999 1.38521C22.0015 1.20287 21.9668 1.02203 21.8977 0.853264C21.8287 0.684493 21.7267 0.531164 21.5978 0.402223C21.4688 0.273283 21.3155 0.171312 21.1467 0.102263C20.978 0.0332133 20.7971 -0.00153266 20.6148 5.18509e-05C20.4324 0.00163636 20.2522 0.03952 20.0847 0.111492C19.9172 0.183464 19.7656 0.288084 19.6389 0.419245L10.9969 9.06093L2.35522 0.419245C2.09674 0.166443 1.74899 0.0257725 1.38745 0.0277636C1.0259 0.0297547 0.679721 0.174246 0.424041 0.429881C0.168361 0.685515 0.0238093 1.03167 0.0217543 1.39321C0.0196993 1.75476 0.160307 2.10253 0.413065 2.36106L9.0551 11.0031L0.413065 19.6451C0.283212 19.7721 0.179843 19.9236 0.108943 20.0908C0.0380431 20.2581 0.00102111 20.4377 2.08263e-05 20.6193C-0.000979454 20.801 0.0340619 20.981 0.103116 21.149C0.172169 21.317 0.273863 21.4696 0.402309 21.598C0.530755 21.7265 0.683402 21.8281 0.851411 21.8971C1.01942 21.9662 1.19945 22.0012 1.38108 22.0002C1.56271 21.9991 1.74234 21.9621 1.90955 21.8911C2.07676 21.8202 2.22824 21.7168 2.35522 21.5869L10.9969 12.9452L19.6389 21.5869C19.9071 21.8551 20.2586 21.9893 20.6098 21.9893C20.9611 21.9893 21.313 21.8551 21.5808 21.5869C21.8382 21.3294 21.9828 20.9802 21.9828 20.616C21.9828 20.2519 21.8382 19.9026 21.5808 19.6451L12.9391 11.0031Z" fill="black"/>
</svg>
