<svg width="14" height="25" viewBox="0 0 14 25" fill="none" xmlns="http://www.w3.org/2000/svg">
<path d="M13.5362 21.9079L3.98235 12.3541L13.5362 2.80024C13.8372 2.4886 14.0037 2.07122 13.9999 1.63798C13.9962 1.20474 13.8224 0.790315 13.516 0.483958C13.2097 0.177601 12.7953 0.00382719 12.362 6.24822e-05C11.9288 -0.00370223 11.5114 0.162844 11.1998 0.463831L0.482703 11.1809C0.328372 11.3346 0.206217 11.5175 0.123375 11.7189C0.0405342 11.9203 -0.00133309 12.1363 0.0002214 12.3541C-0.000874369 12.5718 0.0412027 12.7876 0.124019 12.9889C0.206834 13.1903 0.328744 13.3733 0.482703 13.5272L11.1998 24.2443C11.5114 24.5453 11.9288 24.7118 12.362 24.708C12.7953 24.7043 13.2097 24.5305 13.516 24.2241C13.8224 23.9178 13.9962 23.5034 13.9999 23.0701C14.0037 22.6369 13.8372 22.2195 13.5362 21.9079Z" fill="#928585"/>
</svg>
