<svg width="20" height="20" viewBox="0 0 20 20" fill="none" xmlns="http://www.w3.org/2000/svg">
<path d="M18.0835 8.43896H10.8501V1.20557C10.8501 0.88583 10.7231 0.57919 10.497 0.353102C10.2709 0.127015 9.96427 0 9.64453 0C9.32479 0 9.01816 0.127015 8.79207 0.353102C8.56598 0.57919 8.43896 0.88583 8.43896 1.20557V8.43896H1.20557C0.88583 8.43896 0.57919 8.56598 0.353102 8.79207C0.127015 9.01816 0 9.32479 0 9.64453C0 9.96427 0.127015 10.2709 0.353102 10.497C0.57919 10.7231 0.88583 10.8501 1.20557 10.8501H8.43896V18.0835C8.43896 18.4032 8.56598 18.7099 8.79207 18.936C9.01816 19.162 9.32479 19.2891 9.64453 19.2891C9.96427 19.2891 10.2709 19.162 10.497 18.936C10.7231 18.7099 10.8501 18.4032 10.8501 18.0835V10.8501H18.0835C18.4032 10.8501 18.7099 10.7231 18.936 10.497C19.162 10.2709 19.2891 9.96427 19.2891 9.64453C19.2891 9.32479 19.162 9.01816 18.936 8.79207C18.7099 8.56598 18.4032 8.43896 18.0835 8.43896Z" fill="white"/>
</svg>
