<svg width="20" height="12" viewBox="0 0 20 12" fill="none" xmlns="http://www.w3.org/2000/svg">
<path d="M17.7336 0.375454L10.0001 8.10892L2.26669 0.375454C2.01443 0.131816 1.67657 -0.00299684 1.32588 5.05613e-05C0.975194 0.00309796 0.639731 0.143762 0.391746 0.391746C0.143762 0.639731 0.00309796 0.975194 5.05613e-05 1.32588C-0.00299684 1.67657 0.131816 2.01443 0.375454 2.26669L9.05052 10.9418C9.17492 11.0667 9.32297 11.1656 9.48602 11.2326C9.64907 11.2997 9.82385 11.3336 10.0001 11.3323C10.1764 11.3332 10.3511 11.2991 10.5141 11.2321C10.6771 11.1651 10.8252 11.0664 10.9498 10.9418L19.6248 2.26669C19.8685 2.01443 20.0033 1.67657 20.0002 1.32588C19.9972 0.975194 19.8565 0.639731 19.6086 0.391746C19.3606 0.143762 19.0251 0.00309796 18.6744 5.05613e-05C18.3237 -0.00299684 17.9859 0.131816 17.7336 0.375454V0.375454Z" fill="white"/>
</svg>
