<svg width="14" height="25" viewBox="0 0 14 25" fill="none" xmlns="http://www.w3.org/2000/svg">
<path d="M0.463831 2.80014L10.0176 12.354L0.463831 21.9078C0.162844 22.2194 -0.00370223 22.6368 6.24822e-05 23.07C0.00382719 23.5033 0.177601 23.9177 0.483958 24.224C0.790315 24.5304 1.20474 24.7042 1.63798 24.7079C2.07122 24.7117 2.4886 24.5452 2.80023 24.2442L13.5173 13.5271C13.6716 13.3734 13.7938 13.1905 13.8766 12.9891C13.9595 12.7877 14.0013 12.5718 13.9998 12.354C14.0009 12.1362 13.9588 11.9204 13.876 11.7191C13.7932 11.5177 13.6713 11.3348 13.5173 11.1808L2.80024 0.463738C2.4886 0.16275 2.07122 -0.0037956 1.63798 -3.0498e-05C1.20474 0.0037346 0.790315 0.177507 0.483958 0.483864C0.177602 0.79022 0.00382746 1.20465 6.27378e-05 1.63789C-0.00370198 2.07112 0.162844 2.48851 0.463831 2.80014Z" fill="black"/>
</svg>
