<svg width="17" height="10" viewBox="0 0 17 10" fill="none" xmlns="http://www.w3.org/2000/svg">
<path d="M1.92659 9.31319L8.49997 2.73982L15.0733 9.31319C15.2878 9.52028 15.5749 9.63487 15.873 9.63228C16.1711 9.62969 16.4562 9.51013 16.667 9.29934C16.8778 9.08856 16.9974 8.80342 17 8.50533C17.0025 8.20725 16.888 7.92008 16.6809 7.70566L9.30714 0.331934C9.2014 0.225748 9.07556 0.141702 8.93697 0.0847037C8.79838 0.0277054 8.64982 -0.00110032 8.49997 -3.12607e-05C8.35016 -0.000784676 8.20169 0.028166 8.06314 0.0851461C7.9246 0.142126 7.79872 0.226005 7.69279 0.331934L0.319061 7.70566C0.111973 7.92008 -0.00261676 8.20725 -2.66044e-05 8.50533C0.00256355 8.80342 0.122126 9.08856 0.332911 9.29934C0.543694 9.51013 0.828835 9.62969 1.12692 9.63228C1.425 9.63487 1.71218 9.52028 1.92659 9.31319Z" fill="black"/>
</svg>
