<svg width="36" height="41" viewBox="0 0 36 41" fill="none" xmlns="http://www.w3.org/2000/svg">
<path fill-rule="evenodd" clip-rule="evenodd" d="M17.7548 0C9.48536 0 2.73312 6.76454 2.73312 15.0326V20.5027C2.73312 24.7072 1.08607 28.261 0.420414 29.5923C-0.916364 32.2713 1.10384 35.5244 4.0945 35.5244H11.0627C11.6969 38.6381 14.4662 41 17.7603 41C21.0544 41 23.8236 38.6381 24.4578 35.5244H31.426C34.4167 35.5244 36.4232 32.2658 35.0892 29.5923C34.4276 28.2664 32.7901 24.7085 32.7901 20.5027V15.0326C32.7901 6.76317 26.0242 0 17.7548 0ZM17.7548 2.72276C24.5344 2.72276 30.0646 8.25167 30.0646 15.0326V20.5027C30.0646 25.4097 31.9263 29.3763 32.648 30.8224C33.1264 31.782 32.4963 32.8016 31.426 32.8016H4.0945C3.01606 32.8016 2.38321 31.7861 2.86434 30.8238C3.58467 29.379 5.45589 25.4111 5.45589 20.5027V15.0326C5.45589 8.2503 10.9739 2.72276 17.7548 2.72276ZM17.7548 5.45646C12.4788 5.45646 8.18958 9.7552 8.18958 15.0326C8.18958 15.3951 8.33359 15.7428 8.58992 15.9991C8.84626 16.2554 9.19392 16.3995 9.55643 16.3995C9.91894 16.3995 10.2666 16.2554 10.5229 15.9991C10.7793 15.7428 10.9233 15.3951 10.9233 15.0326C10.9169 14.1333 11.0892 13.2417 11.4302 12.4096C11.7712 11.5774 12.274 10.8212 12.9095 10.185C13.545 9.54866 14.3006 9.04492 15.1324 8.70296C15.9641 8.361 16.8555 8.18762 17.7548 8.19289C18.1177 8.19289 18.4657 8.04874 18.7223 7.79215C18.9789 7.53556 19.123 7.18755 19.123 6.82468C19.123 6.4618 18.9789 6.11379 18.7223 5.8572C18.4657 5.60061 18.1177 5.45646 17.7548 5.45646ZM9.55917 19.1304C9.19666 19.1304 8.84899 19.2744 8.59266 19.5308C8.33632 19.7871 8.19232 20.1348 8.19232 20.4973C8.19232 20.8598 8.33632 21.2074 8.59266 21.4638C8.84899 21.7201 9.19666 21.8641 9.55917 21.8641C9.92168 21.8641 10.2693 21.7201 10.5257 21.4638C10.782 21.2074 10.926 20.8598 10.926 20.4973C10.926 20.1348 10.782 19.7871 10.5257 19.5308C10.2693 19.2744 9.92168 19.1304 9.55917 19.1304ZM13.9057 35.5244H21.6148C21.3387 36.3265 20.8186 37.0221 20.1274 37.5137C19.4362 38.0054 18.6085 38.2686 17.7603 38.2663C16.912 38.2686 16.0843 38.0054 15.3931 37.5137C14.7019 37.0221 14.1818 36.3265 13.9057 35.5244Z" fill="#002147"/>
</svg>
